<?xml version="1.0"?>
<svg xmlns="http://www.w3.org/2000/svg" xmlns:xlink="http://www.w3.org/1999/xlink" xmlns:svgjs="http://svgjs.com/svgjs" version="1.1" width="512" height="512" x="0" y="0" viewBox="0 0 508 508" style="enable-background:new 0 0 512 512" xml:space="preserve" class=""><g><g xmlns="http://www.w3.org/2000/svg"><path d="m254 468c118 0 214-96 214-214s-96-214-214-214-214 96-214 214 96 214 214 214zm0-408c106.972 0 194 87.028 194 194s-87.028 194-194 194-194-87.028-194-194 87.028-194 194-194zm-183 22c0-5.523 4.477-10 10-10s10 4.477 10 10-4.477 10-10 10-10-4.477-10-10zm362.605 351.605c-99.193 99.193-260.017 99.193-359.21 0-87.909-87.909-97.909-224.224-30.001-323.147 3.124-4.554 9.348-5.714 13.903-2.59s5.717 9.35 2.593 13.905c-62.552 91.132-53.336 216.707 27.647 297.69 91.383 91.382 239.543 91.383 330.926 0s91.383-239.544 0-330.926c-81.05-81.05-206.764-90.214-297.914-27.493-4.551 3.129-10.777 1.976-13.906-2.575s-1.978-10.78 2.573-13.909c98.942-68.091 235.408-58.146 323.389 29.835 99.193 99.193 99.193 260.017 0 359.21zm-89.443-240.503c0-5.522 4.478-10 10-10h16.771v-16.102c0-5.522 4.478-10 10-10s10 4.478 10 10v16.102h15.433c5.522 0 10 4.478 10 10s-4.478 10-10 10h-15.433v16.102c0 5.522-4.478 10-10 10s-10-4.478-10-10v-16.102h-16.771c-5.522 0-10-4.478-10-10zm-190.474 0c0-5.522 4.478-10 10-10h27.338c5.522 0 10 4.478 10 10v127.898c0 5.522-4.478 10-10 10s-10-4.478-10-10v-117.898h-17.338c-5.522 0-10-4.478-10-10zm126.083 43.242c-4.956 0-9.734.777-14.223 2.206 12.33-23.842 28.88-36.568 29.107-36.74 4.432-3.296 5.353-9.561 2.056-13.991-3.297-4.432-9.809-5.577-13.991-2.056-29.656 25.559-49.934 59.494-49.934 97.565 0 25.907 21.077 46.984 46.984 46.984 25.908 0 46.985-21.077 46.985-46.984.002-25.907-21.075-46.984-46.984-46.984zm0 73.969c-14.879 0-26.984-12.105-26.984-26.984 0-14.88 12.105-26.985 26.984-26.985 14.88 0 26.985 12.105 26.985 26.985.001 14.879-12.105 26.984-26.985 26.984z" fill="#838383" data-original="#000000" style="" class=""/></g></g></svg>
