<svg id="Capa_1" enable-background="new 0 0 512 512" height="512" viewBox="0 0 512 512" width="512" xmlns="http://www.w3.org/2000/svg"><g><path d="m255 184.029c0-70.03-56.97-127-127-127-70.58 0-128 56.97-128 127 0 65 49.46 118.73 113 126.12v66.88h-33c-8.28 0-15 6.72-15 15s6.72 15 15 15h33v33c0 8.28 6.72 15 15 15s15-6.72 15-15v-33h33c8.28 0 15-6.72 15-15s-6.72-15-15-15h-33v-66.89c62.99-7.44 112-61.16 112-126.11zm-127 63c-34.74 0-63-28.26-63-63s28.26-63 63-63 63 28.26 63 63-28.26 63-63 63z" fill="#ff6378"/><path d="m143 310.139v66.89h33c8.28 0 15 6.72 15 15s-6.72 15-15 15h-33v33c0 8.28-6.72 15-15 15v-208c34.74 0 63-28.26 63-63s-28.26-63-63-63v-64c70.03 0 127 56.97 127 127 0 64.95-49.01 118.67-112 126.11z" fill="#ff1f3d"/><path d="m399 201.909v-101.85l24.68 16.45c6.855 4.579 16.193 2.758 20.8-4.16 4.6-6.89 2.73-16.21-4.16-20.8-51.666-34.444-48.957-32.801-50.89-33.49-3.656-1.442-7.792-1.332-11.29.17-1.998.874 2.028-1.672-50.46 33.32-6.89 4.59-8.76 13.91-4.16 20.8 4.59 6.89 13.91 8.76 20.8 4.16l24.68-16.45v101.86c-62.99 7.44-112 61.16-112 126.11 0 70.03 56.97 127 127 127 70.58 0 128-56.97 128-127 0-65-49.46-118.73-113-126.12zm-15 189.12c-34.74 0-63-28.26-63-63s28.26-63 63-63 63 28.26 63 63-28.26 63-63 63z" fill="#6ba7ff"/><path d="m512 328.029c0 70.03-57.42 127-128 127v-64c34.74 0 63-28.26 63-63s-28.26-63-63-63c0-217.897-.039-207.99.07-207.99 1.602 0 2.869.234 4.36.66 2.739.914-1.135-1.5 51.89 33.85 6.89 4.59 8.76 13.91 4.16 20.8-4.605 6.916-13.944 8.74-20.8 4.16l-24.68-16.45v101.85c63.54 7.39 113 61.12 113 126.12z" fill="#5e69e2"/></g></svg>