<svg height="512pt" viewBox="0 0 512 512" width="512pt" xmlns="http://www.w3.org/2000/svg" xmlns:xlink="http://www.w3.org/1999/xlink"><linearGradient id="a" gradientUnits="userSpaceOnUse" x1="0" x2="512" y1="256" y2="256"><stop offset="0" stop-color="#00f1ff"/><stop offset=".231" stop-color="#00d8ff"/><stop offset=".5138" stop-color="#00c0ff"/><stop offset=".7773" stop-color="#00b2ff"/><stop offset="1" stop-color="#00adff"/></linearGradient><path d="m512 256c0 141.386719-114.613281 256-256 256s-256-114.613281-256-256 114.613281-256 256-256 256 114.613281 256 256zm0 0" fill="url(#a)"/><g fill="#fff"><path d="m252.703125 256.339844c1.097656.039062 2.195313.066406 3.296875.066406 1.03125 0 2.058594-.023438 3.082031-.058594 22.871094.503906 45.367188 6.558594 65.238281 17.617188 7.242188 4.03125 16.375 1.425781 20.402344-5.8125 4.03125-7.238282 1.425782-16.371094-5.8125-20.398438-8.304687-4.625-16.988281-8.511718-25.933594-11.671875 20.273438-16.554687 33.238282-41.734375 33.238282-69.886719 0-49.742187-40.46875-90.210937-90.210938-90.210937-49.746094 0-90.214844 40.46875-90.214844 90.210937 0 28.164063 12.976563 53.351563 33.261719 69.90625-18.59375 6.578126-36.046875 16.355469-51.433593 29.011719-30.007813 24.683594-50.875 59.113281-58.75 96.949219-2.5625 12.3125.507812 24.964844 8.429687 34.703125 7.882813 9.695313 19.570313 15.253906 32.070313 15.253906h101.347656c8.285156 0 15-6.714843 15-15 0-8.285156-6.714844-15-15-15h-101.347656c-4.695313 0-7.527344-2.621093-8.796876-4.183593-1.292968-1.589844-3.3125-4.953126-2.335937-9.660157 13.273437-63.75 69.523437-110.308593 134.46875-111.835937zm-56.914063-90.144532c0-33.203124 27.011719-60.214843 60.210938-60.214843 33.203125 0 60.214844 27.011719 60.214844 60.214843 0 32.328126-25.613282 58.777344-57.613282 60.144532-.867187-.011719-1.734374-.042969-2.601562-.042969-.988281 0-1.972656.015625-2.960938.03125-31.828124-1.546875-57.25-27.925781-57.25-60.132813zm0 0"/><path d="m413.820312 294.753906-24.082031-23.8125c-5.890625-5.828125-15.386719-5.773437-21.210937.117188-5.824219 5.890625-5.769532 15.386718.117187 21.214844l11.433594 11.304687h-67.351563c-29.898437 0-54.21875 24.324219-54.21875 54.222656 0 29.894531 24.179688 54.21875 53.902344 54.21875 8.285156 0 15-6.714843 15-15 0-8.285156-6.714844-15-15-15-13.179687 0-23.902344-10.867187-23.902344-24.21875 0-13.355469 10.863282-24.222656 24.21875-24.222656h68.5625l-12.671874 12.605469c-5.875 5.839844-5.902344 15.335937-.058594 21.210937 2.929687 2.949219 6.78125 4.421875 10.632812 4.421875 3.828125 0 7.652344-1.453125 10.578125-4.363281l24.121094-23.984375c6.542969-6.507812 10.140625-15.160156 10.128906-24.367188-.011719-9.210937-3.632812-17.855468-10.199219-24.347656zm0 0"/></g></svg>